<svg width="50" height="48" viewBox="0 0 50 48" fill="none" xmlns="http://www.w3.org/2000/svg">
<path d="M43.7616 20C43.7616 34 25.393 46 25.393 46C25.393 46 7.02441 34 7.02441 20C7.02441 15.2261 8.95967 10.6477 12.4045 7.27208C15.8492 3.89642 20.5214 2 25.393 2C30.2647 2 34.9368 3.89642 38.3816 7.27208C41.8264 10.6477 43.7616 15.2261 43.7616 20Z" stroke="#1E1E1E" stroke-width="4" stroke-linecap="round" stroke-linejoin="round"/>
<path d="M25.393 26C28.7746 26 31.5159 23.3137 31.5159 20C31.5159 16.6863 28.7746 14 25.393 14C22.0114 14 19.2701 16.6863 19.2701 20C19.2701 23.3137 22.0114 26 25.393 26Z" stroke="#1E1E1E" stroke-width="4" stroke-linecap="round" stroke-linejoin="round"/>
</svg>
